<?xml version="1.0" encoding="utf-8"?>
<!-- Generator: Adobe Illustrator 21.0.2, SVG Export Plug-In . SVG Version: 6.00 Build 0)  -->
<svg version="1.1" id="Layer_1" xmlns="http://www.w3.org/2000/svg" xmlns:xlink="http://www.w3.org/1999/xlink" x="0px" y="0px"
	 viewBox="0 0 82 53" style="enable-background:new 0 0 82 53;" xml:space="preserve">
<style type="text/css">
	.st0{fill:#CD9D2C;}
	.st1{fill:#B7B7B7;}
	.st2{fill:none;stroke:#CD9D2C;stroke-width:2;stroke-linecap:round;stroke-miterlimit:10;}
	.st3{fill:#9F201D;}
</style>
<ellipse transform="matrix(0.9905 -0.1373 0.1373 0.9905 -1.4033 2.7251)" class="st0" cx="19.1" cy="11.5" rx="3.7" ry="3.7"/>
<ellipse transform="matrix(0.9905 -0.1373 0.1373 0.9905 -2.7616 1.7563)" class="st1" cx="11.4" cy="20.9" rx="2.7" ry="2.7"/>
<ellipse transform="matrix(0.9905 -0.1373 0.1373 0.9905 -5.9274 4.7961)" class="st0" cx="31.8" cy="45.4" rx="2" ry="2"/>
<ellipse transform="matrix(0.9905 -0.1373 0.1373 0.9905 -2.7819 3.5055)" class="st0" cx="24" cy="21.9" rx="5.7" ry="5.7"/>
<line class="st2" x1="24.1" y1="22.4" x2="38.3" y2="33.5"/>
<line class="st2" x1="40.9" y1="35.4" x2="33" y2="44.3"/>
<ellipse transform="matrix(0.9905 -0.1373 0.1373 0.9905 -4.2478 2.1179)" class="st0" cx="13.2" cy="31.9" rx="2.7" ry="2.7"/>
<ellipse transform="matrix(0.9905 -0.1373 0.1373 0.9905 -5.3372 3.6735)" class="st0" cx="24" cy="40.5" rx="3.7" ry="3.7"/>
<line class="st2" x1="14.5" y1="32.7" x2="23.1" y2="39.5"/>
<ellipse transform="matrix(0.9905 -0.1373 0.1373 0.9905 -4.3592 4.2594)" class="st0" cx="28.7" cy="33.7" rx="1.3" ry="1.3"/>
<ellipse transform="matrix(0.9905 -0.1373 0.1373 0.9905 -3.4677 5.6236)" class="st0" cx="39" cy="28" rx="1.4" ry="1.4"/>
<ellipse transform="matrix(0.9905 -0.1373 0.1373 0.9905 -2.1953 4.7808)" class="st0" cx="33.6" cy="18.3" rx="1.4" ry="1.4"/>
<line class="st2" x1="42.5" y1="22.9" x2="56.7" y2="34"/>
<ellipse transform="matrix(0.9905 -0.1373 0.1373 0.9905 -4.4201 8.5415)" class="st0" cx="59.7" cy="36.3" rx="7.4" ry="7.4"/>
<ellipse transform="matrix(0.9905 -0.1373 0.1373 0.9905 -3.6463 0.9)" class="st0" cx="4.7" cy="26.9" rx="1.7" ry="1.7"/>
<ellipse transform="matrix(0.9905 -0.1373 0.1373 0.9905 -1.5181 1.1792)" class="st0" cx="7.8" cy="11.6" rx="2" ry="2"/>
<line class="st2" x1="59.2" y1="36.6" x2="51.2" y2="45.5"/>
<ellipse transform="matrix(0.9905 -0.1373 0.1373 0.9905 -5.9078 7.3511)" class="st1" cx="50.3" cy="46.5" rx="1.9" ry="1.9"/>
<line class="st2" x1="50.1" y1="13.5" x2="42.2" y2="22.4"/>
<ellipse transform="matrix(0.9905 -0.1373 0.1373 0.9905 -1.3774 7.0332)" class="st0" cx="50.3" cy="13.5" rx="3.7" ry="3.7"/>
<ellipse transform="matrix(0.9996 -2.759810e-02 2.759810e-02 0.9996 -0.5627 1.713)" class="st0" cx="61.8" cy="21.2" rx="3.7" ry="3.7"/>
<line class="st2" x1="70.6" y1="12.7" x2="62.9" y2="20.5"/>
<ellipse transform="matrix(0.9905 -0.1373 0.1373 0.9905 -5.0706 6.8967)" class="st0" cx="47.5" cy="40.2" rx="1.4" ry="1.4"/>
<ellipse transform="matrix(0.7892 -0.6141 0.6141 0.7892 -2.2707 37.4047)" class="st0" cx="53.4" cy="22" rx="1.4" ry="1.4"/>
<ellipse transform="matrix(0.9905 -0.1373 0.1373 0.9905 -5.0139 10.4209)" class="st0" cx="73.1" cy="41.6" rx="2.7" ry="2.7"/>
<ellipse transform="matrix(0.9905 -0.1373 0.1373 0.9905 -0.7612 8.2921)" class="st1" cx="59.7" cy="9.7" rx="2" ry="2"/>
<ellipse transform="matrix(0.9905 -0.1373 0.1373 0.9905 -2.8319 10.4395)" class="st0" cx="74.3" cy="25.8" rx="3.7" ry="3.7"/>
<ellipse transform="matrix(0.9905 -0.1373 0.1373 0.9905 -4.4737 5.9738)" class="st1" cx="41.1" cy="35.4" rx="3.7" ry="3.7"/>
<ellipse transform="matrix(0.9905 -0.1373 0.1373 0.9905 -2.6534 5.9629)" class="st1" cx="41.9" cy="22.2" rx="2.7" ry="2.7"/>
<ellipse transform="matrix(0.9996 -2.759810e-02 2.759810e-02 0.9996 -0.28 1.994)" class="st1" cx="72.1" cy="11.1" rx="4.1" ry="4.1"/>
<g>
	<path class="st3" d="M51.4,45.2c0-1.3,0-2.6,0-4c0-0.3,0.1-0.3,0.3-0.3c1.8,0,3.6,0,5.4,0c0.3,0,0.4,0.1,0.3,0.3c0,0.5,0,0.9,0,1.4
		c0,0.3-0.1,0.4-0.3,0.3c-1,0-2,0-3,0c-0.3,0-0.4,0.1-0.4,0.4c0,0.8,0,0.8,0.8,0.8c0.7,0,1.3,0,2,0c0.2,0,0.3,0.1,0.3,0.3
		c0,0.5,0,0.9,0,1.4c0,0.3-0.1,0.3-0.3,0.3c-0.8,0-1.7,0-2.5,0c-0.3,0-0.3,0.1-0.3,0.3c0,1,0,1,1,1c0.8,0,1.7,0,2.5,0
		c0.3,0,0.3,0.1,0.3,0.3c0,0.5,0,1,0,1.4c0,0.2,0,0.3-0.3,0.3c-1.9,0-3.8,0-5.6,0c-0.3,0-0.3-0.1-0.3-0.3
		C51.5,47.9,51.4,46.6,51.4,45.2z"/>
	<path class="st3" d="M63.8,40.9c1.1,0,2.3,0,3.4,0c0.3,0,0.3,0.1,0.3,0.3c0,0.5,0,1,0,1.5c0,0.2-0.1,0.3-0.3,0.3
		c-0.6,0-1.2,0-1.9,0c-0.3,0-0.4,0.1-0.4,0.4c0,1.9,0,3.8,0,5.7c0,0.4-0.1,0.5-0.5,0.5c-0.5,0-1,0-1.6,0c-0.3,0-0.4-0.1-0.4-0.4
		c0-1.9,0-3.9,0-5.8c0-0.3-0.1-0.4-0.4-0.4c-0.6,0-1.2,0-1.8,0c-0.3,0-0.4-0.1-0.4-0.4c0-0.4,0-0.9,0-1.3c0-0.3,0.1-0.4,0.4-0.4
		C61.6,40.9,62.7,40.9,63.8,40.9z"/>
	<g>
		<path class="st3" d="M48.3,46.7c-0.2-0.8-0.7-1.2-1.5-1.5c1-0.6,1.3-1.5,1.1-2.5c-0.2-0.9-0.9-1.8-2.1-1.7c-1.5,0.1-3,0-4.5,0
			c-0.3,0-0.4,0-0.4,0.3c0,2.7,0,5.3,0,8c0,0.3,0.1,0.4,0.4,0.4c1.4,0,2.8,0,4.2,0c0.5,0,0.9-0.1,1.3-0.2
			C48.1,48.9,48.6,48,48.3,46.7z M43.7,43c0.4,0,0.9,0,1.3,0c0.4,0,0.6,0.2,0.6,0.6c0,0.5-0.1,0.7-0.5,0.7c-0.3,0-0.5,0-0.8,0
			c-0.9,0-0.9,0-0.9-0.9C43.4,43,43.5,42.9,43.7,43z M45.3,47.6c-0.5,0-1.1,0-1.6,0c-0.2,0-0.3-0.1-0.3-0.3c0-0.4-0.2-0.8,0.1-1.1
			c0.2-0.2,0.7,0,1-0.1c0.3,0,0.6,0,0.9,0c0.4,0,0.7,0.3,0.7,0.7C45.9,47.3,45.7,47.5,45.3,47.6z"/>
	</g>
	<g>
		<path class="st3" d="M77,49.5c-1-2.8-1.9-5.5-2.9-8.3c-0.1-0.2-0.2-0.2-0.3-0.2c-0.6,0-1.1,0-1.7,0c-0.2,0-0.3,0.1-0.4,0.3
			c-0.9,2.7-1.9,5.4-2.8,8.1c-0.1,0.2-0.1,0.3,0.2,0.3c0.6,0,1.3,0,1.9,0c0.2,0,0.3-0.1,0.3-0.3c0.1-0.4,0.2-0.7,0.3-1
			c0.1-0.3,0.2-0.4,0.5-0.4c0.5,0,1,0,1.6,0c0.3,0,0.4,0.1,0.5,0.3c0.1,0.4,0.2,0.7,0.3,1.1c0,0.2,0.1,0.3,0.3,0.3
			c0.7,0,1.4,0,2.2,0C77,49.5,77,49.5,77,49.5z M72.3,46.3c-0.2,0-0.2-0.1-0.1-0.2c0.2-0.8,0.5-1.6,0.7-2.4c0.3,0.9,0.5,1.8,0.8,2.6
			C73.2,46.3,72.8,46.3,72.3,46.3z"/>
	</g>
</g>
</svg>
