<svg id="Layer_1" data-name="Layer 1" xmlns="http://www.w3.org/2000/svg" viewBox="0 0 561 63.83"><title>AC-Horizontal</title><path d="M532.35,45c0-1.69,0-3.37,0-5.06,0-.36.11-.43.44-.43q3.45,0,6.9,0c.35,0,.45.08.44.44,0,.59,0,1.19,0,1.79,0,.34-.07.45-.43.45-1.27,0-2.55,0-3.82,0-.36,0-.48.08-.48.46,0,1.08,0,1.08,1.08,1.08.86,0,1.72,0,2.58,0,.32,0,.39.09.38.39,0,.58,0,1.16,0,1.74,0,.33-.11.37-.4.37-1.07,0-2.15,0-3.22,0-.33,0-.41.09-.41.41,0,1.33,0,1.33,1.29,1.33,1.06,0,2.12,0,3.17,0,.33,0,.43.1.42.42,0,.61,0,1.22,0,1.84,0,.28,0,.41-.37.41q-3.6,0-7.19,0c-.35,0-.35-.16-.35-.42C532.36,48.44,532.35,46.72,532.35,45Z" transform="translate(-4 -2.67)" fill="#9f201d"/><path d="M548.18,39.52c1.44,0,2.88,0,4.32,0,.33,0,.43.09.42.41,0,.63,0,1.26,0,1.88,0,.29-.1.37-.37.36-.79,0-1.59,0-2.38,0-.37,0-.47.1-.47.47,0,2.45,0,4.9,0,7.34,0,.53-.15.64-.63.61a16.93,16.93,0,0,0-2,0c-.39,0-.45-.12-.45-.47,0-2.48,0-5,0-7.44,0-.38-.08-.52-.49-.5-.76,0-1.52,0-2.28,0-.39,0-.48-.12-.46-.48a16.59,16.59,0,0,0,0-1.69c0-.37.07-.51.48-.5C545.33,39.54,546.76,39.52,548.18,39.52Z" transform="translate(-4 -2.67)" fill="#9f201d"/><path d="M528.34,46.86a2.75,2.75,0,0,0-1.87-2,2.93,2.93,0,0,0,1.43-3.19,2.65,2.65,0,0,0-2.64-2.21c-1.93.07-3.87,0-5.8,0-.34,0-.49,0-.49.45q0,5.08,0,10.17c0,.4.14.45.48.45,1.77,0,3.54,0,5.31,0a5.16,5.16,0,0,0,1.7-.28A2.66,2.66,0,0,0,528.34,46.86Zm-5.83-4.75c.54,0,1.09,0,1.63,0a.69.69,0,0,1,.78.71c0,.58-.17.89-.69.95a9.33,9.33,0,0,1-1,0c-1.19,0-1.18,0-1.19-1.21C522,42.2,522.14,42.09,522.52,42.11Zm2,5.88c-.69,0-1.38,0-2.08,0-.26,0-.35-.08-.33-.34,0-.47-.19-1.08.09-1.38s.87,0,1.22-.09h1.09a.83.83,0,0,1,.85.93A.8.8,0,0,1,524.47,48Z" transform="translate(-4 -2.67)" fill="#9f201d"/><path d="M565,50.43q-1.83-5.31-3.67-10.62a.38.38,0,0,0-.43-.29c-.71,0-1.42,0-2.13,0-.29,0-.4.11-.48.36q-1.78,5.17-3.59,10.34c-.1.28-.09.38.24.37.81,0,1.62,0,2.43,0a.37.37,0,0,0,.44-.34c.11-.45.28-.88.39-1.33s.24-.52.64-.49c.66,0,1.32,0,2,0,.33,0,.51.07.59.42s.3.94.43,1.42c.06.23.16.32.41.32.91,0,1.82,0,2.76,0A.64.64,0,0,0,565,50.43Zm-6-4c-.22,0-.19-.11-.15-.25l.94-3.12,1,3.37Z" transform="translate(-4 -2.67)" fill="#9f201d"/><polygon points="170.9 14.69 165.19 14.69 152.53 47.88 159.16 47.88 168.05 22.03 176.88 47.88 183.52 47.88 170.9 14.69" fill="#cd9d2c"/><path d="M195,50.55V17.36h14.68a9.43,9.43,0,0,1,4.23,1,11,11,0,0,1,3.34,2.52,11.93,11.93,0,0,1,2.2,3.55,10.69,10.69,0,0,1,.79,4,11,11,0,0,1-1.61,5.87,9.25,9.25,0,0,1-4.37,3.81l7.57,12.48h-7.25l-6.78-11.13h-6.36V50.55Zm6.45-16.78h8.09a3.42,3.42,0,0,0,1.66-.42,4.23,4.23,0,0,0,1.33-1.15,5.71,5.71,0,0,0,.89-1.71,6.61,6.61,0,0,0,.33-2.1,6,6,0,0,0-.37-2.15,5.61,5.61,0,0,0-1-1.71A4.54,4.54,0,0,0,211,23.41a3.78,3.78,0,0,0-1.66-.4h-7.81Z" transform="translate(-4 -2.67)" fill="#cd9d2c"/><path d="M250.43,23H239.82V50.55h-6.4V23H222.81V17.36h27.63Z" transform="translate(-4 -2.67)" fill="#cd9d2c"/><path d="M254.55,50.55V17.36H261V50.55Z" transform="translate(-4 -2.67)" fill="#cd9d2c"/><path d="M287.69,26.05a8.17,8.17,0,0,0-1.19-.89,14.65,14.65,0,0,0-2.1-1.1,18.31,18.31,0,0,0-2.69-.91,11.78,11.78,0,0,0-2.95-.37,6.6,6.6,0,0,0-4,1,3.25,3.25,0,0,0-1.31,2.76,2.84,2.84,0,0,0,.49,1.71,4.24,4.24,0,0,0,1.43,1.19,12,12,0,0,0,2.36.93q1.42.42,3.3.89,2.43.65,4.42,1.4a12,12,0,0,1,3.36,1.87A7.72,7.72,0,0,1,291,37.2a8.91,8.91,0,0,1,.75,3.86,9.61,9.61,0,0,1-1,4.56A8.44,8.44,0,0,1,288,48.68a11.79,11.79,0,0,1-3.93,1.71,19.75,19.75,0,0,1-4.65.54A25,25,0,0,1,272,49.8a22.78,22.78,0,0,1-6.55-3.18l2.85-5.56a9,9,0,0,0,1.52,1.1,23,23,0,0,0,2.59,1.36,20.14,20.14,0,0,0,3.32,1.15,15,15,0,0,0,3.74.47q5.33,0,5.33-3.41a2.81,2.81,0,0,0-.61-1.82,5.18,5.18,0,0,0-1.73-1.31,16.64,16.64,0,0,0-2.71-1l-3.55-1a30.25,30.25,0,0,1-4.14-1.43,10.9,10.9,0,0,1-2.92-1.82,6.83,6.83,0,0,1-1.75-2.43,8.41,8.41,0,0,1-.58-3.3,10.3,10.3,0,0,1,.93-4.49,9.06,9.06,0,0,1,2.59-3.27,11.77,11.77,0,0,1,3.86-2,16,16,0,0,1,4.72-.68,18.34,18.34,0,0,1,6.45,1.1,24.12,24.12,0,0,1,5.14,2.59Z" transform="translate(-4 -2.67)" fill="#cd9d2c"/><path d="M321.16,23H310.55V50.55h-6.4V23H293.53V17.36h27.63Z" transform="translate(-4 -2.67)" fill="#cd9d2c"/><path d="M324.85,50.55V46h2.76v4.58Z" transform="translate(-4 -2.67)" fill="#b7b7b7"/><path d="M331.68,33.72a17.74,17.74,0,0,1,1.05-6,16.54,16.54,0,0,1,3.06-5.31,15.7,15.7,0,0,1,5-3.81,14.74,14.74,0,0,1,6.68-1.47,13.85,13.85,0,0,1,7.6,2,12.23,12.23,0,0,1,4.65,5.24L357.11,26a9.82,9.82,0,0,0-1.94-2.76,10.82,10.82,0,0,0-2.46-1.82,10.4,10.4,0,0,0-2.71-1,13,13,0,0,0-2.76-.3A11.1,11.1,0,0,0,342,21.33a12.16,12.16,0,0,0-3.86,3.18,13.86,13.86,0,0,0-2.36,4.42,16.06,16.06,0,0,0-.79,5,14.74,14.74,0,0,0,1,5.28,14.93,14.93,0,0,0,2.62,4.46,12.56,12.56,0,0,0,3.93,3.09,10.78,10.78,0,0,0,4.93,1.15,12.38,12.38,0,0,0,2.88-.35,11.08,11.08,0,0,0,2.85-1.12,12,12,0,0,0,2.55-1.92,9.92,9.92,0,0,0,2-2.78l2.71,1.4a10.14,10.14,0,0,1-2.24,3.3,14.76,14.76,0,0,1-3.22,2.41,16.05,16.05,0,0,1-3.76,1.5,15.52,15.52,0,0,1-3.9.51,13.27,13.27,0,0,1-6.26-1.5,16.41,16.41,0,0,1-4.91-3.9,18.1,18.1,0,0,1-3.2-5.47A17.66,17.66,0,0,1,331.68,33.72Z" transform="translate(-4 -2.67)" fill="#b7b7b7"/><path d="M388.24,47.65v2.9h-22.3V17.36h21.88v2.9H369.21v12h16.22V35H369.21V47.65Z" transform="translate(-4 -2.67)" fill="#b7b7b7"/><path d="M397.68,23.43V50.55h-3.27V17.36h2.52L418.9,45V17.4h3.27V50.55h-2.85Z" transform="translate(-4 -2.67)" fill="#b7b7b7"/><path d="M454.06,20.26H442.23V50.55H439V20.26H427.13v-2.9h26.93Z" transform="translate(-4 -2.67)" fill="#b7b7b7"/><path d="M481.31,47.65v2.9H459V17.36h21.88v2.9H462.28v12H478.5V35H462.28V47.65Z" transform="translate(-4 -2.67)" fill="#b7b7b7"/><path d="M487.48,50.55V17.36h14a8.62,8.62,0,0,1,3.95.91,10.43,10.43,0,0,1,3.11,2.38,11,11,0,0,1,2,3.34,10.43,10.43,0,0,1,.72,3.79,11.23,11.23,0,0,1-.54,3.48,10.78,10.78,0,0,1-1.5,3A9,9,0,0,1,507,36.5a8.18,8.18,0,0,1-3,1.24l8.13,12.81h-3.69L500.57,38.3h-9.82V50.55Zm3.27-15.15H501.6a5.56,5.56,0,0,0,2.64-.63,6.29,6.29,0,0,0,2-1.71,8.31,8.31,0,0,0,1.31-2.43,8.72,8.72,0,0,0,.47-2.85,7.85,7.85,0,0,0-.54-2.88,7.94,7.94,0,0,0-1.45-2.41,6.93,6.93,0,0,0-2.15-1.64,5.83,5.83,0,0,0-2.59-.61H490.75Z" transform="translate(-4 -2.67)" fill="#b7b7b7"/><path d="M155.92,61.61" transform="translate(-4 -2.67)" fill="#cd9d2c"/><circle cx="28.79" cy="9.57" r="5.74" transform="translate(-5.04 1.37) rotate(-7.89)" fill="#cd9d2c"/><circle cx="16.9" cy="24.03" r="4.18" transform="translate(-7.14 -0.12) rotate(-7.89)" fill="#b7b7b7"/><circle cx="48.49" cy="61.82" r="3.12" transform="translate(-12.03 4.57) rotate(-7.89)" fill="#cd9d2c"/><circle cx="36.47" cy="25.6" r="8.88" transform="translate(-7.17 2.58) rotate(-7.89)" fill="#cd9d2c"/><line x1="32.64" y1="23.64" x2="54.51" y2="40.78" fill="none" stroke="#cd9d2c" stroke-linecap="round" stroke-miterlimit="10" stroke-width="2.49"/><line x1="58.55" y1="43.73" x2="46.28" y2="57.53" fill="none" stroke="#cd9d2c" stroke-linecap="round" stroke-miterlimit="10" stroke-width="2.49"/><circle cx="19.8" cy="40.95" r="4.18" transform="translate(-9.43 0.44) rotate(-7.89)" fill="#cd9d2c"/><circle cx="36.38" cy="54.34" r="5.74" transform="matrix(0.99, -0.14, 0.14, 0.99, -11.11, 2.84)" fill="#cd9d2c"/><line x1="17.7" y1="39.55" x2="31.11" y2="50.06" fill="none" stroke="#cd9d2c" stroke-linecap="round" stroke-miterlimit="10" stroke-width="2.49"/><circle cx="43.69" cy="43.85" r="2.01" transform="translate(-9.6 3.74) rotate(-7.89)" fill="#cd9d2c"/><circle cx="59.65" cy="34.92" r="2.11" transform="translate(-8.23 5.85) rotate(-7.89)" fill="#cd9d2c"/><circle cx="51.2" cy="20.02" r="2.11" transform="translate(-6.26 4.55) rotate(-7.89)" fill="#cd9d2c"/><line x1="60.99" y1="24.46" x2="82.87" y2="41.6" fill="none" stroke="#cd9d2c" stroke-linecap="round" stroke-miterlimit="10" stroke-width="2.49"/><circle cx="91.59" cy="47.83" r="11.46" transform="translate(-9.7 10.35) rotate(-7.89)" fill="#cd9d2c"/><circle cx="6.63" cy="33.27" r="2.63" transform="translate(-8.5 -1.45) rotate(-7.89)" fill="#cd9d2c"/><circle cx="11.4" cy="9.66" r="3.05" transform="translate(-5.22 -1.01) rotate(-7.89)" fill="#cd9d2c"/><line x1="86.76" y1="45.59" x2="74.49" y2="59.38" fill="none" stroke="#cd9d2c" stroke-linecap="round" stroke-miterlimit="10" stroke-width="2.49"/><circle cx="77.11" cy="63.57" r="2.93" transform="translate(-12 8.52) rotate(-7.89)" fill="#b7b7b7"/><line x1="72.8" y1="9.88" x2="60.53" y2="23.67" fill="none" stroke="#cd9d2c" stroke-linecap="round" stroke-miterlimit="10" stroke-width="2.49"/><circle cx="77.05" cy="12.6" r="5.74" transform="matrix(0.99, -0.14, 0.14, 0.99, -5, 8.03)" fill="#cd9d2c"/><circle cx="94.76" cy="24.55" r="5.74" transform="translate(-4.64 -0.05) rotate(-1.58)" fill="#cd9d2c"/><line x1="104.41" y1="8.62" x2="92.49" y2="20.8" fill="none" stroke="#cd9d2c" stroke-linecap="round" stroke-miterlimit="10" stroke-width="2.49"/><circle cx="72.67" cy="53.85" r="2.11" transform="translate(-10.7 7.81) rotate(-7.89)" fill="#cd9d2c"/><circle cx="81.75" cy="25.74" r="2.11" transform="translate(-2.57 52.96) rotate(-37.89)" fill="#cd9d2c"/><circle cx="112.17" cy="55.93" r="4.18" transform="translate(-10.62 13.26) rotate(-7.89)" fill="#cd9d2c"/><circle cx="91.62" cy="6.67" r="3.05" transform="translate(-4.05 9.97) rotate(-7.89)" fill="#b7b7b7"/><circle cx="114.06" cy="31.52" r="5.74" transform="translate(-7.25 13.29) rotate(-7.89)" fill="#cd9d2c"/><circle cx="62.8" cy="46.45" r="5.74" transform="translate(-9.78 6.39) rotate(-7.89)" fill="#b7b7b7"/><circle cx="64.08" cy="26.06" r="4.18" transform="translate(-6.97 6.37) rotate(-7.89)" fill="#b7b7b7"/><circle cx="110.7" cy="8.96" r="6.29" transform="translate(-4.2 0.39) rotate(-1.58)" fill="#b7b7b7"/></svg>