<?xml version="1.0" encoding="utf-8"?>
<!-- Generator: Adobe Illustrator 21.0.2, SVG Export Plug-In . SVG Version: 6.00 Build 0)  -->
<svg version="1.1" id="Layer_1" xmlns="http://www.w3.org/2000/svg" xmlns:xlink="http://www.w3.org/1999/xlink" x="0px" y="0px"
	 viewBox="0 0 139 69" style="enable-background:new 0 0 139 69;" xml:space="preserve">
<style type="text/css">
	.st0{fill:#CD9D2C;}
	.st1{fill:#B7B7B7;}
	.st2{fill:none;stroke:#CD9D2C;stroke-width:2;stroke-linecap:round;stroke-miterlimit:10;}
</style>
<ellipse transform="matrix(0.9905 -0.1373 0.1373 0.9905 -0.2922 5.8599)" class="st0" cx="42.3" cy="5" rx="3.7" ry="3.7"/>
<ellipse transform="matrix(0.9905 -0.1373 0.1373 0.9905 -1.6325 4.9041)" class="st1" cx="34.7" cy="14.3" rx="2.7" ry="2.7"/>
<ellipse transform="matrix(0.9905 -0.1373 0.1373 0.9905 -4.756 7.9033)" class="st0" cx="54.9" cy="38.4" rx="2" ry="2"/>
<ellipse transform="matrix(0.9905 -0.1373 0.1373 0.9905 -1.6524 6.63)" class="st0" cx="47.2" cy="15.3" rx="5.7" ry="5.7"/>
<line class="st2" x1="47.4" y1="15.7" x2="61.3" y2="26.7"/>
<line class="st2" x1="63.9" y1="28.6" x2="56.1" y2="37.4"/>
<ellipse transform="matrix(0.9905 -0.1373 0.1373 0.9905 -3.0988 5.2608)" class="st0" cx="36.6" cy="25.1" rx="2.7" ry="2.7"/>
<ellipse transform="matrix(0.9905 -0.1373 0.1373 0.9905 -4.1736 6.7957)" class="st0" cx="47.2" cy="33.7" rx="3.7" ry="3.7"/>
<line class="st2" x1="37.8" y1="25.9" x2="46.4" y2="32.6"/>
<ellipse transform="matrix(0.9905 -0.1373 0.1373 0.9905 -3.2088 7.3738)" class="st0" cx="51.9" cy="27" rx="1.3" ry="1.3"/>
<ellipse transform="matrix(0.9905 -0.1373 0.1373 0.9905 -2.3291 8.7197)" class="st0" cx="62.1" cy="21.2" rx="1.3" ry="1.3"/>
<ellipse transform="matrix(0.9905 -0.1373 0.1373 0.9905 -1.0737 7.8882)" class="st0" cx="56.7" cy="11.7" rx="1.3" ry="1.3"/>
<line class="st2" x1="65.5" y1="16.3" x2="79.5" y2="27.2"/>
<ellipse transform="matrix(0.9905 -0.1373 0.1373 0.9905 -3.2688 11.5988)" class="st0" cx="82.5" cy="29.5" rx="7.3" ry="7.3"/>
<ellipse transform="matrix(0.9905 -0.1373 0.1373 0.9905 -2.5053 4.0592)" class="st0" cx="28.2" cy="20.2" rx="1.7" ry="1.7"/>
<ellipse transform="matrix(0.9905 -0.1373 0.1373 0.9905 -0.4055 4.3346)" class="st0" cx="31.2" cy="5.1" rx="1.9" ry="1.9"/>
<line class="st2" x1="81.9" y1="29.8" x2="74.1" y2="38.6"/>
<ellipse transform="matrix(0.9905 -0.1373 0.1373 0.9905 -4.7366 10.4243)" class="st1" cx="73.2" cy="39.6" rx="1.9" ry="1.9"/>
<line class="st2" x1="73" y1="7" x2="65.2" y2="15.8"/>
<ellipse transform="matrix(0.9905 -0.1373 0.1373 0.9905 -0.2667 10.1106)" class="st0" cx="73.2" cy="7" rx="3.7" ry="3.7"/>
<ellipse transform="matrix(0.9996 -2.759810e-02 2.759810e-02 0.9996 -0.3714 2.3374)" class="st0" cx="84.5" cy="14.6" rx="3.7" ry="3.7"/>
<line class="st2" x1="93.2" y1="6.2" x2="85.6" y2="13.9"/>
<ellipse transform="matrix(0.9905 -0.1373 0.1373 0.9905 -3.9106 9.9759)" class="st0" cx="70.4" cy="33.3" rx="1.3" ry="1.3"/>
<ellipse transform="matrix(0.7892 -0.6141 0.6141 0.7892 6.6124 50.0274)" class="st0" cx="76.2" cy="15.4" rx="1.3" ry="1.3"/>
<ellipse transform="matrix(0.9905 -0.1373 0.1373 0.9905 -3.8547 13.4531)" class="st0" cx="95.6" cy="34.7" rx="2.7" ry="2.7"/>
<ellipse transform="matrix(0.9905 -0.1373 0.1373 0.9905 0.3413 11.3527)" class="st1" cx="82.5" cy="3.2" rx="1.9" ry="1.9"/>
<ellipse transform="matrix(0.9905 -0.1373 0.1373 0.9905 -1.7018 13.4715)" class="st0" cx="96.8" cy="19.1" rx="3.7" ry="3.7"/>
<ellipse transform="matrix(0.9905 -0.1373 0.1373 0.9905 -3.3217 9.0653)" class="st1" cx="64.1" cy="28.6" rx="3.7" ry="3.7"/>
<ellipse transform="matrix(0.9905 -0.1373 0.1373 0.9905 -1.5257 9.0545)" class="st1" cx="64.9" cy="15.6" rx="2.7" ry="2.7"/>
<ellipse transform="matrix(0.9996 -2.759810e-02 2.759810e-02 0.9996 -9.251711e-02 2.6147)" class="st1" cx="94.7" cy="4.7" rx="4" ry="4"/>
<g>
	<polygon class="st0" points="7.2,55.1 5,55.1 0,68.1 2.6,68.1 6.1,58 9.6,68.1 12.2,68.1 	"/>
	<path class="st0" d="M15.1,68.1v-13h5.7c0.6,0,1.1,0.1,1.7,0.4c0.5,0.2,0.9,0.6,1.3,1c0.4,0.4,0.7,0.9,0.9,1.4
		c0.2,0.5,0.3,1,0.3,1.6c0,0.8-0.2,1.6-0.6,2.3c-0.4,0.7-1,1.2-1.7,1.5l3,4.9h-2.8l-2.6-4.3h-2.5v4.3H15.1z M17.6,61.6h3.2
		c0.2,0,0.4-0.1,0.6-0.2c0.2-0.1,0.4-0.3,0.5-0.4c0.1-0.2,0.3-0.4,0.3-0.7c0.1-0.3,0.1-0.5,0.1-0.8c0-0.3,0-0.6-0.1-0.8
		c-0.1-0.3-0.2-0.5-0.4-0.7c-0.2-0.2-0.4-0.3-0.6-0.4c-0.2-0.1-0.4-0.2-0.6-0.2h-3.1V61.6z"/>
	<path class="st0" d="M36.7,57.3h-4.1v10.8h-2.5V57.3h-4.1v-2.2h10.8V57.3z"/>
	<path class="st0" d="M38.4,68.1v-13h2.5v13H38.4z"/>
	<path class="st0" d="M51.3,58.5c-0.1-0.1-0.2-0.2-0.5-0.3c-0.2-0.1-0.5-0.3-0.8-0.4c-0.3-0.1-0.7-0.3-1.1-0.4
		c-0.4-0.1-0.8-0.1-1.2-0.1c-0.7,0-1.2,0.1-1.6,0.4c-0.3,0.3-0.5,0.6-0.5,1.1c0,0.3,0.1,0.5,0.2,0.7c0.1,0.2,0.3,0.3,0.6,0.5
		c0.2,0.1,0.6,0.3,0.9,0.4c0.4,0.1,0.8,0.2,1.3,0.3c0.6,0.2,1.2,0.4,1.7,0.5c0.5,0.2,1,0.4,1.3,0.7c0.4,0.3,0.6,0.6,0.8,1.1
		c0.2,0.4,0.3,0.9,0.3,1.5c0,0.7-0.1,1.3-0.4,1.8c-0.3,0.5-0.6,0.9-1.1,1.2s-1,0.5-1.5,0.7c-0.6,0.1-1.2,0.2-1.8,0.2
		c-1,0-1.9-0.1-2.9-0.4c-1-0.3-1.8-0.7-2.6-1.2l1.1-2.2c0.1,0.1,0.3,0.3,0.6,0.4c0.3,0.2,0.6,0.4,1,0.5c0.4,0.2,0.8,0.3,1.3,0.4
		c0.5,0.1,1,0.2,1.5,0.2c1.4,0,2.1-0.4,2.1-1.3c0-0.3-0.1-0.5-0.2-0.7c-0.2-0.2-0.4-0.4-0.7-0.5c-0.3-0.1-0.6-0.3-1.1-0.4
		c-0.4-0.1-0.9-0.3-1.4-0.4c-0.6-0.2-1.2-0.4-1.6-0.6c-0.5-0.2-0.8-0.4-1.1-0.7c-0.3-0.3-0.5-0.6-0.7-1c-0.2-0.4-0.2-0.8-0.2-1.3
		c0-0.7,0.1-1.2,0.4-1.8c0.2-0.5,0.6-0.9,1-1.3c0.4-0.3,0.9-0.6,1.5-0.8c0.6-0.2,1.2-0.3,1.8-0.3c0.9,0,1.8,0.1,2.5,0.4
		c0.8,0.3,1.4,0.6,2,1L51.3,58.5z"/>
	<path class="st0" d="M64.4,57.3h-4.1v10.8h-2.5V57.3h-4.1v-2.2h10.8V57.3z"/>
	<path class="st1" d="M65.8,68.1v-1.8h1.1v1.8H65.8z"/>
	<path class="st1" d="M68.5,61.5c0-0.8,0.1-1.6,0.4-2.3c0.3-0.8,0.7-1.5,1.2-2.1c0.5-0.6,1.2-1.1,1.9-1.5c0.8-0.4,1.6-0.6,2.6-0.6
		c1.2,0,2.1,0.3,3,0.8c0.8,0.5,1.4,1.2,1.8,2l-1,0.6c-0.2-0.4-0.5-0.8-0.8-1.1c-0.3-0.3-0.6-0.5-1-0.7c-0.3-0.2-0.7-0.3-1.1-0.4
		c-0.4-0.1-0.7-0.1-1.1-0.1c-0.8,0-1.5,0.2-2.1,0.5c-0.6,0.3-1.1,0.7-1.5,1.2c-0.4,0.5-0.7,1.1-0.9,1.7c-0.2,0.6-0.3,1.3-0.3,1.9
		c0,0.7,0.1,1.4,0.4,2.1c0.2,0.7,0.6,1.2,1,1.7c0.4,0.5,0.9,0.9,1.5,1.2c0.6,0.3,1.2,0.4,1.9,0.4c0.4,0,0.7,0,1.1-0.1
		c0.4-0.1,0.8-0.2,1.1-0.4c0.4-0.2,0.7-0.5,1-0.7c0.3-0.3,0.6-0.7,0.8-1.1l1.1,0.5c-0.2,0.5-0.5,0.9-0.9,1.3s-0.8,0.7-1.3,0.9
		c-0.5,0.3-1,0.5-1.5,0.6c-0.5,0.1-1,0.2-1.5,0.2c-0.9,0-1.7-0.2-2.4-0.6c-0.7-0.4-1.4-0.9-1.9-1.5c-0.5-0.6-1-1.3-1.3-2.1
		C68.6,63.2,68.5,62.4,68.5,61.5z"/>
	<path class="st1" d="M90.6,67v1.1h-8.7v-13h8.6v1.1h-7.3v4.7h6.3V62h-6.3v5H90.6z"/>
	<path class="st1" d="M94.3,57.5v10.6H93v-13h1l8.6,10.8V55.2h1.3v13h-1.1L94.3,57.5z"/>
	<path class="st1" d="M116.3,56.3h-4.6v11.8h-1.3V56.3h-4.6v-1.1h10.5V56.3z"/>
	<path class="st1" d="M127,67v1.1h-8.7v-13h8.6v1.1h-7.3v4.7h6.3V62h-6.3v5H127z"/>
	<path class="st1" d="M129.4,68.1v-13h5.5c0.6,0,1.1,0.1,1.5,0.4c0.5,0.2,0.9,0.5,1.2,0.9c0.3,0.4,0.6,0.8,0.8,1.3
		c0.2,0.5,0.3,1,0.3,1.5c0,0.5-0.1,0.9-0.2,1.4c-0.1,0.4-0.3,0.8-0.6,1.2s-0.6,0.6-0.9,0.9c-0.4,0.2-0.7,0.4-1.2,0.5l3.2,5h-1.4
		l-3.1-4.8h-3.8v4.8H129.4z M130.7,62.2h4.2c0.4,0,0.7-0.1,1-0.2s0.6-0.4,0.8-0.7c0.2-0.3,0.4-0.6,0.5-0.9c0.1-0.4,0.2-0.7,0.2-1.1
		c0-0.4-0.1-0.8-0.2-1.1c-0.1-0.4-0.3-0.7-0.6-0.9c-0.2-0.3-0.5-0.5-0.8-0.6c-0.3-0.2-0.7-0.2-1-0.2h-4.1V62.2z"/>
</g>
</svg>
