<?xml version="1.0" encoding="utf-8"?>
<!-- Generator: Adobe Illustrator 21.0.2, SVG Export Plug-In . SVG Version: 6.00 Build 0)  -->
<svg version="1.1" id="Layer_1" xmlns="http://www.w3.org/2000/svg" xmlns:xlink="http://www.w3.org/1999/xlink" x="0px" y="0px"
	 viewBox="0 0 425 47" style="enable-background:new 0 0 425 47;" xml:space="preserve">
<style type="text/css">
	.st0{fill:#CD9D2C;}
	.st1{fill:#B7B7B7;}
	.st2{fill:none;stroke:#CD9D2C;stroke-width:2;stroke-linecap:round;stroke-miterlimit:10;}
</style>
<g>
	<polygon class="st0" points="125.8,8.5 120.7,8.5 109.5,37.9 115.4,37.9 123.3,15 131.1,37.9 137,37.9 	"/>
	<path class="st0" d="M143.7,37.9V8.5h13c1.4,0,2.6,0.3,3.8,0.9c1.1,0.6,2.1,1.3,3,2.2c0.8,0.9,1.5,2,2,3.2c0.5,1.2,0.7,2.4,0.7,3.5
		c0,1.9-0.5,3.6-1.4,5.2c-1,1.6-2.2,2.7-3.9,3.4l6.7,11.1H161l-6-9.9h-5.6v9.9H143.7z M149.4,23h7.2c0.5,0,1-0.1,1.5-0.4
		c0.5-0.2,0.9-0.6,1.2-1c0.3-0.4,0.6-0.9,0.8-1.5c0.2-0.6,0.3-1.2,0.3-1.9c0-0.7-0.1-1.3-0.3-1.9c-0.2-0.6-0.5-1.1-0.9-1.5
		c-0.4-0.4-0.8-0.8-1.3-1c-0.5-0.2-1-0.4-1.5-0.4h-6.9V23z"/>
	<path class="st0" d="M192.8,13.5h-9.4v24.4h-5.7V13.5h-9.4v-5h24.5V13.5z"/>
	<path class="st0" d="M196.5,37.9V8.5h5.7v29.5H196.5z"/>
	<path class="st0" d="M225.9,16.2c-0.2-0.2-0.5-0.5-1.1-0.8c-0.5-0.3-1.1-0.7-1.9-1c-0.7-0.3-1.5-0.6-2.4-0.8
		c-0.9-0.2-1.7-0.3-2.6-0.3c-1.6,0-2.8,0.3-3.5,0.9c-0.8,0.6-1.2,1.4-1.2,2.4c0,0.6,0.1,1.1,0.4,1.5c0.3,0.4,0.7,0.8,1.3,1.1
		c0.6,0.3,1.3,0.6,2.1,0.8c0.8,0.2,1.8,0.5,2.9,0.8c1.4,0.4,2.7,0.8,3.9,1.2c1.2,0.4,2.2,1,3,1.7c0.8,0.7,1.4,1.5,1.9,2.4
		c0.4,0.9,0.7,2.1,0.7,3.4c0,1.6-0.3,2.9-0.9,4s-1.4,2-2.4,2.7c-1,0.7-2.2,1.2-3.5,1.5c-1.3,0.3-2.7,0.5-4.1,0.5
		c-2.2,0-4.4-0.3-6.6-1c-2.2-0.7-4.1-1.6-5.8-2.8l2.5-4.9c0.2,0.2,0.7,0.6,1.3,1c0.6,0.4,1.4,0.8,2.3,1.2c0.9,0.4,1.9,0.7,2.9,1
		c1.1,0.3,2.2,0.4,3.3,0.4c3.2,0,4.7-1,4.7-3c0-0.6-0.2-1.2-0.5-1.6c-0.4-0.4-0.9-0.8-1.5-1.2c-0.7-0.3-1.5-0.6-2.4-0.9
		c-0.9-0.3-2-0.6-3.2-0.9c-1.4-0.4-2.6-0.8-3.7-1.3c-1-0.5-1.9-1-2.6-1.6c-0.7-0.6-1.2-1.3-1.6-2.2c-0.3-0.8-0.5-1.8-0.5-2.9
		c0-1.5,0.3-2.8,0.8-4c0.6-1.2,1.3-2.1,2.3-2.9c1-0.8,2.1-1.4,3.4-1.8c1.3-0.4,2.7-0.6,4.2-0.6c2.1,0,4,0.3,5.7,1
		c1.7,0.7,3.3,1.4,4.6,2.3L225.9,16.2z"/>
	<path class="st0" d="M255.6,13.5h-9.4v24.4h-5.7V13.5h-9.4v-5h24.5V13.5z"/>
	<path class="st1" d="M258.9,37.9v-4.1h2.4v4.1H258.9z"/>
	<path class="st1" d="M264.9,23c0-1.8,0.3-3.5,0.9-5.3c0.6-1.8,1.5-3.3,2.7-4.7c1.2-1.4,2.7-2.5,4.4-3.4c1.7-0.9,3.7-1.3,5.9-1.3
		c2.6,0,4.9,0.6,6.7,1.8c1.9,1.2,3.2,2.7,4.1,4.6l-2.3,1.4c-0.5-1-1-1.8-1.7-2.4c-0.7-0.7-1.4-1.2-2.2-1.6c-0.8-0.4-1.6-0.7-2.4-0.9
		c-0.8-0.2-1.6-0.3-2.4-0.3c-1.8,0-3.3,0.4-4.7,1.1c-1.4,0.7-2.5,1.7-3.4,2.8c-0.9,1.2-1.6,2.5-2.1,3.9c-0.5,1.5-0.7,2.9-0.7,4.4
		c0,1.6,0.3,3.2,0.9,4.7c0.6,1.5,1.3,2.8,2.3,4c1,1.1,2.1,2.1,3.5,2.7c1.3,0.7,2.8,1,4.4,1c0.8,0,1.7-0.1,2.6-0.3
		c0.9-0.2,1.7-0.5,2.5-1c0.8-0.5,1.6-1,2.3-1.7c0.7-0.7,1.3-1.5,1.7-2.5l2.4,1.2c-0.5,1.1-1.1,2.1-2,2.9c-0.9,0.8-1.8,1.6-2.9,2.1
		c-1.1,0.6-2.2,1-3.3,1.3c-1.2,0.3-2.3,0.5-3.5,0.5c-2,0-3.9-0.4-5.6-1.3c-1.7-0.9-3.1-2-4.4-3.5c-1.2-1.4-2.2-3-2.8-4.9
		C265.3,26.7,264.9,24.9,264.9,23z"/>
	<path class="st1" d="M315.1,35.4v2.6h-19.8V8.5h19.4v2.6h-16.5v10.6h14.4v2.4h-14.4v11.2H315.1z"/>
	<path class="st1" d="M323.5,13.9v24.1h-2.9V8.5h2.2L342.3,33V8.5h2.9v29.4h-2.5L323.5,13.9z"/>
	<path class="st1" d="M373.5,11.1H363v26.9h-2.9V11.1h-10.5V8.5h23.9V11.1z"/>
	<path class="st1" d="M397.7,35.4v2.6h-19.8V8.5h19.4v2.6h-16.5v10.6h14.4v2.4h-14.4v11.2H397.7z"/>
	<path class="st1" d="M403.2,37.9V8.5h12.4c1.3,0,2.4,0.3,3.5,0.8c1.1,0.5,2,1.2,2.8,2.1c0.8,0.9,1.4,1.9,1.8,3
		c0.4,1.1,0.6,2.2,0.6,3.4c0,1.1-0.2,2.1-0.5,3.1c-0.3,1-0.8,1.9-1.3,2.7c-0.6,0.8-1.3,1.5-2.1,2c-0.8,0.5-1.7,0.9-2.7,1.1l7.2,11.4
		h-3.3l-6.9-10.9h-8.7v10.9H403.2z M406.1,24.5h9.6c0.9,0,1.6-0.2,2.3-0.6s1.3-0.9,1.8-1.5c0.5-0.6,0.9-1.4,1.2-2.2
		c0.3-0.8,0.4-1.6,0.4-2.5c0-0.9-0.2-1.7-0.5-2.6c-0.3-0.8-0.7-1.5-1.3-2.1c-0.5-0.6-1.2-1.1-1.9-1.5c-0.7-0.4-1.5-0.5-2.3-0.5h-9.4
		V24.5z"/>
</g>
<path class="st0" d="M117,44"/>
<ellipse transform="matrix(0.9905 -0.1373 0.1373 0.9905 -0.6086 2.5239)" class="st0" cx="18" cy="5.7" rx="4.2" ry="4.2"/>
<ellipse transform="matrix(0.9905 -0.1373 0.1373 0.9905 -2.1309 1.4381)" class="st1" cx="9.4" cy="16.2" rx="3" ry="3"/>
<ellipse transform="matrix(0.9905 -0.1373 0.1373 0.9905 -5.6789 4.8449)" class="st0" cx="32.3" cy="43.6" rx="2.3" ry="2.3"/>
<ellipse transform="matrix(0.9905 -0.1373 0.1373 0.9905 -2.1536 3.3986)" class="st0" cx="23.6" cy="17.3" rx="6.4" ry="6.4"/>
<line class="st2" x1="23.7" y1="17.8" x2="39.6" y2="30.3"/>
<line class="st2" x1="42.5" y1="32.4" x2="33.6" y2="42.4"/>
<ellipse transform="matrix(0.9905 -0.1373 0.1373 0.9905 -3.7965 1.8434)" class="st0" cx="11.5" cy="28.5" rx="3" ry="3"/>
<ellipse transform="matrix(0.9905 -0.1373 0.1373 0.9905 -5.0174 3.5868)" class="st0" cx="23.5" cy="38.2" rx="4.2" ry="4.2"/>
<line class="st2" x1="12.8" y1="29.4" x2="22.6" y2="37"/>
<ellipse transform="matrix(0.9905 -0.1373 0.1373 0.9905 -3.9214 4.2434)" class="st0" cx="28.8" cy="30.6" rx="1.5" ry="1.5"/>
<ellipse transform="matrix(0.9905 -0.1373 0.1373 0.9905 -2.9222 5.7723)" class="st0" cx="40.4" cy="24.1" rx="1.5" ry="1.5"/>
<ellipse transform="matrix(0.9905 -0.1373 0.1373 0.9905 -1.4963 4.8278)" class="st0" cx="34.3" cy="13.3" rx="1.5" ry="1.5"/>
<line class="st2" x1="44.3" y1="18.4" x2="60.1" y2="30.9"/>
<ellipse transform="matrix(0.9905 -0.1373 0.1373 0.9905 -3.9896 9.0425)" class="st0" cx="63.6" cy="33.4" rx="8.3" ry="8.3"/>
<ellipse transform="matrix(0.9905 -0.1373 0.1373 0.9905 -3.1129 0.6157)" class="st0" cx="2.9" cy="22.9" rx="1.9" ry="1.9"/>
<ellipse transform="matrix(0.9905 -0.1373 0.1373 0.9905 -0.7373 0.7914)" class="st0" cx="5.4" cy="5.7" rx="2.2" ry="2.2"/>
<line class="st2" x1="63" y1="33.8" x2="54.1" y2="43.8"/>
<ellipse transform="matrix(0.9905 -0.1373 0.1373 0.9905 -5.6569 7.7084)" class="st1" cx="53.1" cy="44.9" rx="2.1" ry="2.1"/>
<line class="st2" x1="52.8" y1="7.8" x2="43.9" y2="17.9"/>
<ellipse transform="matrix(0.9905 -0.1373 0.1373 0.9905 -0.5796 7.3521)" class="st0" cx="53" cy="7.9" rx="4.2" ry="4.2"/>
<ellipse transform="matrix(0.9996 -2.759810e-02 2.759810e-02 0.9996 -0.4317 1.8242)" class="st0" cx="65.9" cy="16.6" rx="4.2" ry="4.2"/>
<line class="st2" x1="75.8" y1="6.9" x2="67.1" y2="15.8"/>
<ellipse transform="matrix(0.9905 -0.1373 0.1373 0.9905 -4.7186 7.1991)" class="st0" cx="49.8" cy="37.8" rx="1.5" ry="1.5"/>
<ellipse transform="matrix(0.7892 -0.6141 0.6141 0.7892 1.2024 38.326)" class="st0" cx="56.4" cy="17.4" rx="1.5" ry="1.5"/>
<ellipse transform="matrix(0.9905 -0.1373 0.1373 0.9905 -4.6551 11.1488)" class="st0" cx="78.5" cy="39.3" rx="3" ry="3"/>
<ellipse transform="matrix(0.9905 -0.1373 0.1373 0.9905 0.111 8.7629)" class="st1" cx="63.6" cy="3.6" rx="2.2" ry="2.2"/>
<ellipse transform="matrix(0.9905 -0.1373 0.1373 0.9905 -2.2097 11.1696)" class="st0" cx="79.9" cy="21.6" rx="4.2" ry="4.2"/>
<ellipse transform="matrix(0.9905 -0.1373 0.1373 0.9905 -4.0497 6.1648)" class="st1" cx="42.7" cy="32.4" rx="4.2" ry="4.2"/>
<ellipse transform="matrix(0.9905 -0.1373 0.1373 0.9905 -2.0096 6.1526)" class="st1" cx="43.6" cy="17.6" rx="3" ry="3"/>
<ellipse transform="matrix(0.9996 -2.759810e-02 2.759810e-02 0.9996 -0.1149 2.1392)" class="st1" cx="77.4" cy="5.2" rx="4.6" ry="4.6"/>
</svg>
